{
  "accessors": [
    {
      "name": "BackWheels_Cylinder.007-Mesh_0_positions",
      "componentType": 5126,
      "count": 640,
      "min": [
        3.0320959091186523,
        -1.121546983718872,
        -0.8107640147209167
      ],
      "max": [
        3.34496808052063,
        -0.7925739884376526,
        0.8139230012893677
      ],
      "type": "VEC3",
      "bufferView": 0,
      "byteOffset": 0
    },
    {
      "name": "BackWheels_Cylinder.007-Mesh_0_normals",
      "componentType": 5126,
      "count": 640,
      "min": [
        -1,
        -0.9510656595230103,
        -1
      ],
      "max": [
        1,
        0.9510656595230103,
        1
      ],
      "type": "VEC3",
      "bufferView": 1,
      "byteOffset": 0
    },
    {
      "name": "BackWheels_Cylinder.007-Mesh_0_indices",
      "componentType": 5123,
      "count": 1056,
      "min": [
        0
      ],
      "max": [
        639
      ],
      "type": "SCALAR",
      "bufferView": 2,
      "byteOffset": 0
    },
    {
      "name": "Bus_Cube.001-Mesh_0_positions",
      "componentType": 5126,
      "count": 194,
      "min": [
        -0.21022099256515503,
        -1.000905990600586,
        -0.8723180294036865
      ],
      "max": [
        3.756304979324341,
        -0.2555209994316101,
        0.8723180294036865
      ],
      "type": "VEC3",
      "bufferView": 0,
      "byteOffset": 7680
    },
    {
      "name": "Bus_Cube.001-Mesh_0_normals",
      "componentType": 5126,
      "count": 194,
      "min": [
        -1,
        -0.9510656595230103,
        -1
      ],
      "max": [
        1,
        0.9999621510505676,
        1
      ],
      "type": "VEC3",
      "bufferView": 1,
      "byteOffset": 7680
    },
    {
      "name": "Bus_Cube.001-Mesh_0_indices",
      "componentType": 5123,
      "count": 348,
      "min": [
        0
      ],
      "max": [
        193
      ],
      "type": "SCALAR",
      "bufferView": 2,
      "byteOffset": 2112
    },
    {
      "name": "Bus_Cube.001-Mesh_1_positions",
      "componentType": 5126,
      "count": 98,
      "min": [
        -0.14103500545024872,
        -0.2982720136642456,
        -0.8311820030212402
      ],
      "max": [
        3.7175259590148926,
        0.5055360198020935,
        0.8311820030212402
      ],
      "type": "VEC3",
      "bufferView": 0,
      "byteOffset": 10008
    },
    {
      "name": "Bus_Cube.001-Mesh_1_normals",
      "componentType": 5126,
      "count": 98,
      "min": [
        -0.9832985997200012,
        0,
        -1
      ],
      "max": [
        1,
        0.18199974298477173,
        1
      ],
      "type": "VEC3",
      "bufferView": 1,
      "byteOffset": 10008
    },
    {
      "name": "Bus_Cube.001-Mesh_1_indices",
      "componentType": 5123,
      "count": 180,
      "min": [
        0
      ],
      "max": [
        97
      ],
      "type": "SCALAR",
      "bufferView": 2,
      "byteOffset": 2808
    },
    {
      "name": "Bus_Cube.001-Mesh_2_positions",
      "componentType": 5126,
      "count": 56,
      "min": [
        -0.27806800603866577,
        -0.9750980138778687,
        -0.4603149890899658
      ],
      "max": [
        -0.20798000693321228,
        -0.6165879964828491,
        0.4603149890899658
      ],
      "type": "VEC3",
      "bufferView": 0,
      "byteOffset": 11184
    },
    {
      "name": "Bus_Cube.001-Mesh_2_normals",
      "componentType": 5126,
      "count": 56,
      "min": [
        -1,
        -1,
        -0.9999995231628418
      ],
      "max": [
        0,
        1,
        0.9999995231628418
      ],
      "type": "VEC3",
      "bufferView": 1,
      "byteOffset": 11184
    },
    {
      "name": "Bus_Cube.001-Mesh_2_indices",
      "componentType": 5123,
      "count": 96,
      "min": [
        0
      ],
      "max": [
        55
      ],
      "type": "SCALAR",
      "bufferView": 2,
      "byteOffset": 3168
    },
    {
      "name": "Bus_Cube.001-Mesh_3_positions",
      "componentType": 5126,
      "count": 423,
      "min": [
        -0.25350600481033325,
        -1.000905990600586,
        -0.8723180294036865
      ],
      "max": [
        3.80833101272583,
        0.3073340058326721,
        0.8723180294036865
      ],
      "type": "VEC3",
      "bufferView": 0,
      "byteOffset": 11856
    },
    {
      "name": "Bus_Cube.001-Mesh_3_normals",
      "componentType": 5126,
      "count": 423,
      "min": [
        -1,
        -1,
        -1
      ],
      "max": [
        1,
        1,
        1
      ],
      "type": "VEC3",
      "bufferView": 1,
      "byteOffset": 11856
    },
    {
      "name": "Bus_Cube.001-Mesh_3_indices",
      "componentType": 5123,
      "count": 726,
      "min": [
        0
      ],
      "max": [
        422
      ],
      "type": "SCALAR",
      "bufferView": 2,
      "byteOffset": 3360
    },
    {
      "name": "Bus_Cube.001-Mesh_4_positions",
      "componentType": 5126,
      "count": 80,
      "min": [
        -0.22694100439548492,
        -0.8942490220069885,
        -0.7698799967765808
      ],
      "max": [
        3.7765159606933594,
        -0.6415079832077026,
        0.7698799967765808
      ],
      "type": "VEC3",
      "bufferView": 0,
      "byteOffset": 16932
    },
    {
      "name": "Bus_Cube.001-Mesh_4_normals",
      "componentType": 5126,
      "count": 80,
      "min": [
        -0.9999383687973022,
        -1,
        -1
      ],
      "max": [
        1,
        1,
        1
      ],
      "type": "VEC3",
      "bufferView": 1,
      "byteOffset": 16932
    },
    {
      "name": "Bus_Cube.001-Mesh_4_indices",
      "componentType": 5123,
      "count": 120,
      "min": [
        0
      ],
      "max": [
        79
      ],
      "type": "SCALAR",
      "bufferView": 2,
      "byteOffset": 4812
    },
    {
      "name": "Bus_Cube.001-Mesh_5_positions",
      "componentType": 5126,
      "count": 482,
      "min": [
        -0.20798000693321228,
        -0.6186670064926147,
        -0.795661985874176
      ],
      "max": [
        3.756304979324341,
        0.5544440150260925,
        0.795661985874176
      ],
      "type": "VEC3",
      "bufferView": 0,
      "byteOffset": 17892
    },
    {
      "name": "Bus_Cube.001-Mesh_5_normals",
      "componentType": 5126,
      "count": 482,
      "min": [
        -1,
        -1,
        -1
      ],
      "max": [
        1,
        1,
        1
      ],
      "type": "VEC3",
      "bufferView": 1,
      "byteOffset": 17892
    },
    {
      "name": "Bus_Cube.001-Mesh_5_indices",
      "componentType": 5123,
      "count": 996,
      "min": [
        0
      ],
      "max": [
        481
      ],
      "type": "SCALAR",
      "bufferView": 2,
      "byteOffset": 5052
    },
    {
      "name": "FrontWheels_Cylinder.006-Mesh_0_positions",
      "componentType": 5126,
      "count": 640,
      "min": [
        0.18402999639511108,
        -1.121546983718872,
        -0.8616639971733093
      ],
      "max": [
        0.4969019889831543,
        -0.7925739884376526,
        0.8622530102729797
      ],
      "type": "VEC3",
      "bufferView": 0,
      "byteOffset": 23676
    },
    {
      "name": "FrontWheels_Cylinder.006-Mesh_0_normals",
      "componentType": 5126,
      "count": 640,
      "min": [
        -1,
        -0.9510656595230103,
        -1
      ],
      "max": [
        1,
        0.9510656595230103,
        1
      ],
      "type": "VEC3",
      "bufferView": 1,
      "byteOffset": 23676
    },
    {
      "name": "FrontWheels_Cylinder.006-Mesh_0_indices",
      "componentType": 5123,
      "count": 1056,
      "min": [
        0
      ],
      "max": [
        639
      ],
      "type": "SCALAR",
      "bufferView": 2,
      "byteOffset": 7044
    }
  ],
  "asset": {
    "generator": "obj2gltf",
    "version": "2.0"
  },
  "buffers": [
    {
      "name": "bus",
      "byteLength": 71868,
      "uri": "data:application/octet-stream;base64,"
    }
  ],
  "bufferViews": [
    {
      "name": "bufferView_0",
      "buffer": 0,
      "byteLength": 31356,
      "byteOffset": 0,
      "byteStride": 12,
      "target": 34962
    },
    {
      "name": "bufferView_1",
      "buffer": 0,
      "byteLength": 31356,
      "byteOffset": 31356,
      "byteStride": 12,
      "target": 34962
    },
    {
      "name": "bufferView_2",
      "buffer": 0,
      "byteLength": 9156,
      "byteOffset": 62712,
      "target": 34963
    }
  ],
  "materials": [
    {
      "name": "Material",
      "pbrMetallicRoughness": {
        "baseColorFactor": [
          0.64,
          0.64,
          0.64,
          1
        ],
        "metallicFactor": 0,
        "roughnessFactor": 0.903921569
      },
      "emissiveFactor": [
        0,
        0,
        0
      ],
      "alphaMode": "OPAQUE",
      "doubleSided": false
    },
    {
      "name": "Bottom",
      "pbrMetallicRoughness": {
        "baseColorFactor": [
          0.64,
          0.64,
          0.64,
          1
        ],
        "metallicFactor": 0,
        "roughnessFactor": 0.903921569
      },
      "emissiveFactor": [
        0,
        0,
        0
      ],
      "alphaMode": "OPAQUE",
      "doubleSided": false
    },
    {
      "name": "Windows",
      "pbrMetallicRoughness": {
        "baseColorFactor": [
          0.64,
          0.64,
          0.64,
          1
        ],
        "metallicFactor": 0,
        "roughnessFactor": 0.903921569
      },
      "emissiveFactor": [
        0,
        0,
        0
      ],
      "alphaMode": "OPAQUE",
      "doubleSided": false
    },
    {
      "name": "Details",
      "pbrMetallicRoughness": {
        "baseColorFactor": [
          0.64,
          0.64,
          0.64,
          1
        ],
        "metallicFactor": 0,
        "roughnessFactor": 0.903921569
      },
      "emissiveFactor": [
        0,
        0,
        0
      ],
      "alphaMode": "OPAQUE",
      "doubleSided": false
    },
    {
      "name": "Bumper",
      "pbrMetallicRoughness": {
        "baseColorFactor": [
          0.64,
          0.64,
          0.64,
          1
        ],
        "metallicFactor": 0,
        "roughnessFactor": 0.903921569
      },
      "emissiveFactor": [
        0,
        0,
        0
      ],
      "alphaMode": "OPAQUE",
      "doubleSided": false
    },
    {
      "name": "Lights",
      "pbrMetallicRoughness": {
        "baseColorFactor": [
          0.64,
          0.64,
          0.64,
          1
        ],
        "metallicFactor": 0,
        "roughnessFactor": 0.903921569
      },
      "emissiveFactor": [
        0,
        0,
        0
      ],
      "alphaMode": "OPAQUE",
      "doubleSided": false
    },
    {
      "name": "Top",
      "pbrMetallicRoughness": {
        "baseColorFactor": [
          0.64,
          0.64,
          0.64,
          1
        ],
        "metallicFactor": 0,
        "roughnessFactor": 0.903921569
      },
      "emissiveFactor": [
        0,
        0,
        0
      ],
      "alphaMode": "OPAQUE",
      "doubleSided": false
    }
  ],
  "meshes": [
    {
      "name": "BackWheels_Cylinder.007-Mesh",
      "primitives": [
        {
          "attributes": {
            "POSITION": 0,
            "NORMAL": 1
          },
          "indices": 2,
          "material": 0,
          "mode": 4
        }
      ]
    },
    {
      "name": "Bus_Cube.001-Mesh",
      "primitives": [
        {
          "attributes": {
            "POSITION": 3,
            "NORMAL": 4
          },
          "indices": 5,
          "material": 1,
          "mode": 4
        },
        {
          "attributes": {
            "POSITION": 6,
            "NORMAL": 7
          },
          "indices": 8,
          "material": 2,
          "mode": 4
        },
        {
          "attributes": {
            "POSITION": 9,
            "NORMAL": 10
          },
          "indices": 11,
          "material": 3,
          "mode": 4
        },
        {
          "attributes": {
            "POSITION": 12,
            "NORMAL": 13
          },
          "indices": 14,
          "material": 4,
          "mode": 4
        },
        {
          "attributes": {
            "POSITION": 15,
            "NORMAL": 16
          },
          "indices": 17,
          "material": 5,
          "mode": 4
        },
        {
          "attributes": {
            "POSITION": 18,
            "NORMAL": 19
          },
          "indices": 20,
          "material": 6,
          "mode": 4
        }
      ]
    },
    {
      "name": "FrontWheels_Cylinder.006-Mesh",
      "primitives": [
        {
          "attributes": {
            "POSITION": 21,
            "NORMAL": 22
          },
          "indices": 23,
          "material": 0,
          "mode": 4
        }
      ]
    }
  ],
  "nodes": [
    {
      "name": "BackWheels_Cylinder.007",
      "mesh": 0
    },
    {
      "name": "Bus_Cube.001",
      "mesh": 1
    },
    {
      "name": "FrontWheels_Cylinder.006",
      "mesh": 2
    }
  ],
  "scene": 0,
  "scenes": [
    {
      "nodes": [
        0,
        1,
        2
      ]
    }
  ]
}
